<svg width="1074" height="171" viewBox="0 0 1074 171" fill="none" xmlns="http://www.w3.org/2000/svg">
<g clip-path="url(#clip0_4_21)">
<path d="M1017.04 107.752L985.934 45.1119C984.494 41.9439 983.774 39.2079 983.774 36.9039C983.774 34.1679 984.926 31.7199 987.23 29.5599C989.534 27.3999 992.126 26.3199 995.006 26.3199C997.598 26.3199 999.758 27.0399 1001.49 28.4799C1003.36 29.9199 1005.01 32.2239 1006.45 35.3919L1029.13 84.6399L1052.03 34.9599C1054.48 29.1999 1058.08 26.3199 1062.83 26.3199C1065.57 26.3199 1068.01 27.3279 1070.17 29.3439C1072.33 31.3599 1073.41 33.6639 1073.41 36.2559C1073.41 38.8479 1072.62 41.4399 1071.04 44.0319L1039.5 107.752V145.552C1039.5 149.728 1038.49 153.04 1036.48 155.488C1034.61 157.936 1031.87 159.16 1028.27 159.16C1024.81 159.16 1022.08 157.936 1020.06 155.488C1018.05 153.04 1017.04 149.728 1017.04 145.552V107.752Z" fill="white"/>
<path d="M941.221 116.608V38.848C941.221 34.816 942.085 31.72 943.813 29.56C945.685 27.256 948.277 26.104 951.589 26.104C954.901 26.104 957.421 27.256 959.149 29.56C961.021 31.72 961.957 34.816 961.957 38.848V144.688C961.957 148.576 961.021 151.96 959.149 154.84C957.421 157.576 954.469 158.944 950.293 158.944C947.989 158.944 945.901 158.296 944.029 157C942.301 155.848 940.573 153.76 938.845 150.736L888.301 65.2V146.416C888.301 150.448 887.365 153.616 885.493 155.92C883.765 158.08 881.245 159.16 877.933 159.16C874.621 159.16 872.029 158.08 870.157 155.92C868.429 153.616 867.565 150.448 867.565 146.416V42.088C867.565 37.768 868.573 34.096 870.589 31.072C872.605 27.904 875.845 26.32 880.309 26.32C883.045 26.32 885.349 27.04 887.221 28.48C889.093 29.776 890.965 32.008 892.837 35.176L941.221 116.608Z" fill="white"/>
<path d="M815.291 116.608V38.848C815.291 34.816 816.155 31.72 817.883 29.56C819.755 27.256 822.347 26.104 825.659 26.104C828.971 26.104 831.491 27.256 833.219 29.56C835.091 31.72 836.027 34.816 836.027 38.848V144.688C836.027 148.576 835.091 151.96 833.219 154.84C831.491 157.576 828.539 158.944 824.363 158.944C822.059 158.944 819.971 158.296 818.099 157C816.371 155.848 814.643 153.76 812.915 150.736L762.371 65.2V146.416C762.371 150.448 761.435 153.616 759.563 155.92C757.835 158.08 755.315 159.16 752.003 159.16C748.691 159.16 746.099 158.08 744.227 155.92C742.499 153.616 741.635 150.448 741.635 146.416V42.088C741.635 37.768 742.643 34.096 744.659 31.072C746.675 27.904 749.915 26.32 754.379 26.32C757.115 26.32 759.419 27.04 761.291 28.48C763.163 29.776 765.035 32.008 766.907 35.176L815.291 116.608Z" fill="white"/>
<path d="M687.022 145.552V39.712C687.022 35.392 687.958 32.08 689.83 29.776C691.846 27.328 694.582 26.104 698.038 26.104C701.638 26.104 704.374 27.328 706.246 29.776C708.262 32.08 709.27 35.392 709.27 39.712V145.552C709.27 149.728 708.262 153.04 706.246 155.488C704.374 157.936 701.638 159.16 698.038 159.16C694.582 159.16 691.846 157.936 689.83 155.488C687.958 153.04 687.022 149.728 687.022 145.552Z" fill="white"/>
<path d="M600.401 109.48V145.552C600.401 149.728 599.394 153.04 597.378 155.488C595.506 157.936 592.769 159.16 589.169 159.16C585.569 159.16 582.762 157.936 580.746 155.488C578.874 153.04 577.938 149.728 577.938 145.552V40.576C577.938 35.824 579.378 32.584 582.258 30.856C585.138 29.128 588.522 28.264 592.41 28.264H616.385C626.898 28.264 635.61 29.416 642.522 31.72C649.434 34.024 654.618 38.128 658.074 44.032C661.53 49.792 663.258 58 663.258 68.656C663.258 77.008 662.106 83.848 659.802 89.176C657.642 94.504 654.402 98.68 650.082 101.704C645.762 104.728 640.434 106.816 634.098 107.968C627.906 108.976 620.705 109.48 612.497 109.48H600.401ZM599.97 90.904H616.169C622.361 90.904 627.258 90.184 630.858 88.744C634.602 87.304 637.266 85 638.85 81.832C640.434 78.52 641.225 74.128 641.225 68.656C641.225 60.592 639.498 54.976 636.042 51.808C632.73 48.496 626.825 46.84 618.329 46.84H599.97V90.904Z" fill="white"/>
<path d="M523.757 145.552V39.712C523.757 35.392 524.693 32.08 526.565 29.776C528.581 27.328 531.317 26.104 534.773 26.104C538.373 26.104 541.109 27.328 542.981 29.776C544.997 32.08 546.005 35.392 546.005 39.712V145.552C546.005 149.728 544.997 153.04 542.981 155.488C541.109 157.936 538.373 159.16 534.773 159.16C531.317 159.16 528.581 157.936 526.565 155.488C524.693 153.04 523.757 149.728 523.757 145.552Z" fill="white"/>
<path d="M444.829 85.504V100.84C444.829 106.744 445.189 112.072 445.909 116.824C446.773 121.576 448.141 125.68 450.013 129.136C452.029 132.592 454.765 135.256 458.221 137.128C461.677 139 466.069 139.936 471.397 139.936C474.277 139.936 476.725 139.792 478.741 139.504C480.901 139.072 483.061 138.352 485.221 137.344C487.525 136.336 490.117 135.04 492.997 133.456C495.157 132.16 496.957 131.512 498.397 131.512C501.133 131.512 503.365 132.592 505.093 134.752C506.821 136.912 507.685 139.288 507.685 141.88C507.685 144.472 506.749 146.632 504.877 148.36C501.709 151.816 497.101 154.48 491.053 156.352C485.149 158.224 478.309 159.16 470.533 159.16C461.605 159.16 454.045 157.864 447.853 155.272C441.661 152.536 436.693 148.576 432.949 143.392C429.205 138.208 426.469 132.088 424.741 125.032C423.157 117.976 422.365 110.056 422.365 101.272V83.992C422.365 75.208 423.157 67.288 424.741 60.232C426.469 53.032 429.205 46.912 432.949 41.872C436.693 36.832 441.589 32.944 447.637 30.208C453.829 27.472 461.389 26.104 470.317 26.104C477.661 26.104 484.069 26.968 489.541 28.696C495.013 30.28 499.333 32.728 502.501 36.04C504.085 37.912 504.877 40.072 504.877 42.52C504.877 45.256 503.941 47.632 502.069 49.648C500.197 51.52 497.893 52.456 495.157 52.456C493.429 52.456 491.413 51.736 489.109 50.296C484.069 46.984 478.165 45.328 471.397 45.328C466.069 45.328 461.677 46.264 458.221 48.136C454.765 50.008 452.029 52.744 450.013 56.344C448.141 59.944 446.773 64.264 445.909 69.304C445.189 74.2 444.829 79.6 444.829 85.504Z" fill="white"/>
<path d="M348.964 48.136V80.536H386.332C390.076 80.536 392.956 81.4 394.972 83.128C397.132 84.856 398.212 87.232 398.212 90.256C398.212 93.28 397.132 95.656 394.972 97.384C392.956 99.112 390.076 99.976 386.332 99.976H348.964V137.128H395.404C399.148 137.128 402.1 138.064 404.26 139.936C406.42 141.664 407.5 144.04 407.5 147.064C407.5 150.232 406.42 152.68 404.26 154.408C402.1 156.136 399.148 157 395.404 157H338.812C334.204 157 330.964 155.56 329.092 152.68C327.364 149.8 326.5 146.416 326.5 142.528V42.736C326.5 37.552 327.58 33.88 329.74 31.72C332.044 29.416 335.788 28.264 340.972 28.264H393.244C397.132 28.264 400.084 29.128 402.1 30.856C404.26 32.584 405.34 35.032 405.34 38.2C405.34 41.224 404.26 43.672 402.1 45.544C400.084 47.272 397.132 48.136 393.244 48.136H348.964Z" fill="white"/>
<path d="M237.8 109.048V145.552C237.8 149.728 236.792 153.04 234.776 155.488C232.904 157.936 230.168 159.16 226.568 159.16C222.968 159.16 220.16 157.936 218.144 155.488C216.272 153.04 215.336 149.728 215.336 145.552V40.576C215.336 35.824 216.776 32.584 219.656 30.856C222.536 29.128 225.92 28.264 229.808 28.264H253.784C264.152 28.264 272.792 29.416 279.704 31.72C286.616 34.024 291.8 38.056 295.256 43.816C298.856 49.576 300.656 57.784 300.656 68.44C300.656 74.632 300.008 79.96 298.712 84.424C297.56 88.744 295.544 92.416 292.664 95.44C289.928 98.464 286.112 101.272 281.216 103.864C282.512 105.16 283.736 106.816 284.888 108.832C286.04 110.848 287.48 113.656 289.208 117.256L300.008 140.584C300.728 142.024 301.304 143.464 301.736 144.904C302.168 146.2 302.384 147.496 302.384 148.792C302.384 151.384 301.232 153.76 298.928 155.92C296.768 157.936 294.248 158.944 291.368 158.944C286.472 158.944 282.8 155.992 280.352 150.088L268.256 122.44C267.248 119.848 266.168 117.616 265.016 115.744C263.864 113.872 262.784 112.504 261.776 111.64C260.768 110.488 259.616 109.768 258.32 109.48C257.024 109.192 255.08 109.048 252.488 109.048H237.8ZM237.368 90.904H253.568C259.76 90.904 264.656 90.184 268.256 88.744C272 87.304 274.664 85 276.248 81.832C277.832 78.52 278.624 74.128 278.624 68.656C278.624 60.592 276.896 54.976 273.44 51.808C270.128 48.496 264.224 46.84 255.728 46.84H237.368V90.904Z" fill="white"/>
<path d="M32.5171 80.9927L36.6278 110.061C39.7598 106.342 57.7687 100.959 81.8458 100.665C105.923 100.372 124.128 107.517 127.357 110.061L136.46 80.4055C145.562 79.8182 164.237 75.179 166.116 61.32C167.995 47.4609 148.89 39.8854 139.102 37.8301C139.592 39.2982 140.747 43.1153 141.451 46.6388C142.156 50.1623 142.638 53.5946 142.626 58.0901C136.46 36.9492 126.477 21.6808 109.74 7.58685C96.396 -3.65028 64.522 -2.10273 36.9214 10.2295C9.32079 22.5617 -2.71778 37.5365 0.512083 61.9072C3.09597 81.4038 22.9254 82.7545 32.5171 80.9927Z" fill="white"/>
<path d="M80.8181 151.929C78.3418 149.937 71.6342 146.177 63.3475 146.177C58.2797 146.177 54.2917 148.067 50.4128 149.905C46.2012 151.901 42.1183 153.836 36.9214 153.224C28.9348 152.285 22.2402 146.177 19.8912 143.241C22.7296 152.245 31.8124 170.372 45.4365 170.842C52.2992 171.078 58.2082 167.5 63.9217 164.041C66.4708 162.001 73.4188 157.922 80.8181 157.922C88.2174 157.922 95.1654 162.001 97.7145 164.041C103.428 167.5 109.337 171.078 116.2 170.842C129.824 170.372 138.907 152.245 141.745 143.241C139.396 146.177 132.701 152.285 124.715 153.224C119.518 153.836 115.435 151.901 111.223 149.905C107.345 148.067 103.357 146.177 98.2887 146.177C90.0021 146.177 83.2944 149.937 80.8181 151.929Z" fill="white"/>
</g>
<defs>
<clipPath id="clip0_4_21">
<rect width="1074" height="171" fill="white"/>
</clipPath>
</defs>
</svg>
