<svg width="1024" height="1024" viewBox="0 0 1024 1024" fill="none" xmlns="http://www.w3.org/2000/svg">
<rect width="1024" height="1024" fill="#3397F2"/>
<path d="M289.786 492.648L307.837 620.292C321.59 603.961 400.669 580.323 506.394 579.034C612.12 577.744 692.058 609.118 706.241 620.292L746.21 490.07C786.18 487.491 868.182 467.119 876.433 406.263C884.685 345.406 800.792 312.141 757.814 303.116C759.963 309.563 765.035 326.324 768.129 341.796C771.224 357.268 773.339 372.34 773.286 392.08C746.21 299.248 702.373 232.203 628.881 170.315C570.286 120.971 430.324 127.767 309.126 181.919C187.929 236.071 135.066 301.827 149.249 408.842C160.595 494.453 247.668 500.384 289.786 492.648Z" fill="white"/>
<path d="M501.882 804.139C491.008 795.388 461.554 778.88 425.166 778.88C402.913 778.88 385.401 787.179 368.369 795.25C349.875 804.013 331.947 812.509 309.126 809.824C274.056 805.699 244.66 778.88 234.345 765.987C246.809 805.527 286.692 885.122 346.517 887.185C376.652 888.224 402.599 872.513 427.688 857.323C438.881 848.366 469.391 830.454 501.882 830.454C534.373 830.454 564.882 848.366 576.076 857.323C601.164 872.513 627.112 888.224 657.247 887.185C717.072 885.122 756.955 805.527 769.419 765.987C759.104 778.88 729.707 805.699 694.637 809.824C671.817 812.509 653.889 804.013 635.395 795.25C618.362 787.179 600.851 778.88 578.597 778.88C542.21 778.88 512.756 795.388 501.882 804.139Z" fill="white"/>
</svg>
